<svg xmlns="http://www.w3.org/2000/svg" width="340" height="626" viewBox="0 0 340 626" role="img" aria-labelledby="title"><title id="title">Browser-driven newsletter batches with test preview bypass</title>
<defs><marker id="arrow" viewBox="0 0 10 10" refX="9" refY="5" markerWidth="6" markerHeight="6" orient="auto-start-reverse"><path d="M 0 0 L 10 5 L 0 10 z" fill="#42566b"/></marker></defs>
<rect width="340" height="626" rx="10" fill="#f5f8fc"/>
<path d="M170 64 V100" fill="none" stroke="#42566b" stroke-width="1.6" marker-end="url(#arrow)"/>
<path d="M120 144 L80 210" fill="none" stroke="#42566b" stroke-width="1.6" marker-end="url(#arrow)"/>
<path d="M220 144 L252 210" fill="none" stroke="#42566b" stroke-width="1.6" marker-end="url(#arrow)"/>
<path d="M252 254 L190 302" fill="none" stroke="#42566b" stroke-width="1.6" marker-end="url(#arrow)"/>
<path d="M187 346 V394" fill="none" stroke="#42566b" stroke-width="1.6" marker-end="url(#arrow)"/>
<path d="M187 438 V486" fill="none" stroke="#42566b" stroke-width="1.6" marker-end="url(#arrow)"/>
<path d="M187 530 V578" fill="none" stroke="#42566b" stroke-width="1.6" marker-end="url(#arrow)"/>
<path d="M270 508 H320 V275 H252 V254" fill="none" stroke="#42566b" stroke-width="1.6" marker-end="url(#arrow)"/>
<rect x="90" y="20" width="160" height="44" rx="6" fill="#fff" stroke="#65819c"/>
<text x="170.0" y="46.0" text-anchor="middle" font-family="Arial, sans-serif" font-size="14" fill="#172f48">Select articles</text>
<rect x="90" y="100" width="160" height="44" rx="6" fill="#fff" stroke="#65819c"/>
<text x="170.0" y="126.0" text-anchor="middle" font-family="Arial, sans-serif" font-size="14" fill="#172f48">Check admin</text>
<rect x="16" y="210" width="130" height="44" rx="6" fill="#fff" stroke="#65819c"/>
<text x="81.0" y="236.0" text-anchor="middle" font-family="Arial, sans-serif" font-size="14" fill="#172f48">Preview email</text>
<rect x="182" y="210" width="140" height="44" rx="6" fill="#fff" stroke="#65819c"/>
<text x="252.0" y="236.0" text-anchor="middle" font-family="Arial, sans-serif" font-size="14" fill="#172f48">Send record</text>
<rect x="115" y="302" width="145" height="44" rx="6" fill="#fff" stroke="#65819c"/>
<text x="187.5" y="328.0" text-anchor="middle" font-family="Arial, sans-serif" font-size="14" fill="#172f48">Active batch</text>
<rect x="115" y="394" width="145" height="44" rx="6" fill="#fff" stroke="#65819c"/>
<text x="187.5" y="420.0" text-anchor="middle" font-family="Arial, sans-serif" font-size="14" fill="#172f48">Send and log</text>
<rect x="105" y="486" width="165" height="44" rx="6" fill="#fff" stroke="#65819c"/>
<text x="187.5" y="512.0" text-anchor="middle" font-family="Arial, sans-serif" font-size="14" fill="#172f48">Browser progress</text>
<rect x="115" y="578" width="145" height="36" rx="6" fill="#fff" stroke="#65819c"/>
<text x="187.5" y="600.0" text-anchor="middle" font-family="Arial, sans-serif" font-size="14" fill="#172f48">Review history</text>
<rect x="38.3" y="167" width="67.4" height="18" fill="#f5f8fc"/><text x="72" y="180" text-anchor="middle" font-family="Arial, sans-serif" font-size="12" fill="#243f5b">Test mode</text>
<rect x="231.3" y="167" width="67.4" height="18" fill="#f5f8fc"/><text x="265" y="180" text-anchor="middle" font-family="Arial, sans-serif" font-size="12" fill="#243f5b">Bulk mode</text>
<rect x="235.7" y="363" width="80.6" height="18" fill="#f5f8fc"/><text x="276" y="376" text-anchor="middle" font-family="Arial, sans-serif" font-size="12" fill="#243f5b">More remain</text>
<rect x="194.8" y="546" width="34.4" height="18" fill="#f5f8fc"/><text x="212" y="559" text-anchor="middle" font-family="Arial, sans-serif" font-size="12" fill="#243f5b">Done</text>
</svg>
